<svg width="45" height="45" viewBox="0 0 45 45" fill="none" xmlns="http://www.w3.org/2000/svg">
<path fill-rule="evenodd" clip-rule="evenodd" d="M33.5109 11.4093L28.8938 12.7968L31.9688 20.8387C33.8218 20.3848 35.7781 20.6541 37.4396 21.5919C39.101 22.5296 40.3427 24.0653 40.9117 25.8862C41.4808 27.7072 41.3345 29.6766 40.5026 31.3935C39.6708 33.1104 38.2159 34.4458 36.4342 35.1278C34.6524 35.8098 32.6777 35.7871 30.9121 35.0644C29.1465 34.3417 27.7226 32.9733 26.9304 31.2378C26.1381 29.5022 26.0371 27.53 26.6478 25.7226C27.2584 23.9152 28.535 22.4084 30.2175 21.509L28.6725 17.4684L23.3456 28.5328C23.2688 28.6917 23.1487 28.8258 22.9991 28.9195C22.8495 29.0132 22.6765 29.0627 22.5 29.0625H18.6919C18.4512 30.9537 17.4995 32.6823 16.0301 33.897C14.5607 35.1116 12.6839 35.7213 10.7812 35.6019C8.87851 35.4825 7.09265 34.6431 5.78661 33.2543C4.48057 31.8654 3.75237 30.0314 3.75 28.125C3.74858 26.2162 4.47501 24.3787 5.78126 22.9868C7.08752 21.595 8.87531 20.7536 10.7804 20.6341C12.6854 20.5146 14.5643 21.1259 16.0343 22.3435C17.5043 23.5612 18.4547 25.2935 18.6919 27.1875H21.0356L16.4606 14.3775C16.4246 14.2763 16.4062 14.1698 16.4063 14.0625H15C14.7514 14.0625 14.5129 13.9637 14.3371 13.7879C14.1613 13.612 14.0625 13.3736 14.0625 13.125C14.0625 12.8763 14.1613 12.6379 14.3371 12.462C14.5129 12.2862 14.7514 12.1875 15 12.1875H19.2188C19.4674 12.1875 19.7058 12.2862 19.8817 12.462C20.0575 12.6379 20.1563 12.8763 20.1563 13.125C20.1563 13.3736 20.0575 13.612 19.8817 13.7879C19.7058 13.9637 19.4674 14.0625 19.2188 14.0625H18.3394L20.0663 18.8971L27.6853 14.8875L26.7806 12.5221C26.7346 12.4017 26.7139 12.273 26.7198 12.1442C26.7257 12.0154 26.7582 11.8892 26.8151 11.7735C26.8721 11.6578 26.9522 11.5551 27.0507 11.4718C27.1491 11.3884 27.2637 11.3263 27.3872 11.2893L32.9719 9.61401L33.5109 11.4093ZM20.7028 20.6812L22.5516 25.8562L26.5172 17.6212L20.7028 20.6812ZM32.8744 28.4596L30.8934 23.2781C29.6787 23.9948 28.7775 25.1416 28.3685 26.4914C27.9594 27.8412 28.0724 29.2954 28.685 30.5658C29.2975 31.8363 30.365 32.8302 31.6759 33.3507C32.9867 33.8712 34.4453 33.8803 35.7625 33.3761C37.0797 32.8719 38.1594 31.8913 38.7877 30.6286C39.416 29.3658 39.547 27.9131 39.1548 26.5584C38.7625 25.2036 37.8757 24.0456 36.6699 23.3139C35.4642 22.5822 34.0275 22.3302 32.6447 22.6078L34.6256 27.7903C34.7104 28.0216 34.7006 28.277 34.5985 28.5012C34.4964 28.7255 34.3102 28.9005 34.0801 28.9884C33.8499 29.0764 33.5944 29.0702 33.3688 28.9713C33.1431 28.8723 32.9655 28.6885 32.8744 28.4596ZM16.7972 27.1875H11.25C11.0014 27.1875 10.7629 27.2862 10.5871 27.462C10.4113 27.6379 10.3125 27.8763 10.3125 28.125C10.3125 28.3736 10.4113 28.612 10.5871 28.7879C10.7629 28.9637 11.0014 29.0625 11.25 29.0625H16.7972C16.5584 30.45 15.808 31.6976 14.6943 32.559C13.5806 33.4204 12.1844 33.8329 10.7813 33.7152C9.3783 33.5974 8.07038 32.958 7.11577 31.9231C6.16117 30.8881 5.62924 29.5329 5.625 28.125C5.62371 26.7136 6.15299 25.3534 7.10783 24.3142C8.06266 23.2749 9.37328 22.6325 10.7796 22.5145C12.186 22.3965 13.5853 22.8115 14.7 23.6771C15.8147 24.5427 16.5633 25.7957 16.7972 27.1875Z" fill="#BA7E80"/>
</svg>
