<svg width="163" height="40" viewBox="0 0 163 40" fill="none" xmlns="http://www.w3.org/2000/svg">
<path d="M0.129297 15V0.999999H5.5893C6.81596 0.999999 7.86263 1.19333 8.7293 1.58C9.59596 1.96667 10.2626 2.52667 10.7293 3.26C11.196 3.99333 11.4293 4.86667 11.4293 5.88C11.4293 6.89333 11.196 7.76667 10.7293 8.5C10.2626 9.22 9.59596 9.78 8.7293 10.18C7.86263 10.5667 6.81596 10.76 5.5893 10.76H1.2293L2.1293 9.82V15H0.129297ZM2.1293 10.02L1.2293 9.02H5.5293C6.8093 9.02 7.77596 8.74667 8.4293 8.2C9.09596 7.65333 9.4293 6.88 9.4293 5.88C9.4293 4.88 9.09596 4.10667 8.4293 3.56C7.77596 3.01333 6.8093 2.74 5.5293 2.74H1.2293L2.1293 1.74V10.02ZM14.2829 15V0.159999H16.2029V15H14.2829ZM24.5888 15.12C23.4555 15.12 22.4555 14.8867 21.5888 14.42C20.7355 13.9533 20.0688 13.3133 19.5888 12.5C19.1222 11.6867 18.8888 10.7533 18.8888 9.7C18.8888 8.64667 19.1155 7.71333 19.5688 6.9C20.0355 6.08667 20.6688 5.45333 21.4688 5C22.2822 4.53333 23.1955 4.3 24.2088 4.3C25.2355 4.3 26.1422 4.52667 26.9288 4.98C27.7155 5.43333 28.3288 6.07333 28.7688 6.9C29.2222 7.71333 29.4488 8.66667 29.4488 9.76C29.4488 9.84 29.4422 9.93333 29.4288 10.04C29.4288 10.1467 29.4222 10.2467 29.4088 10.34H20.3888V8.96H28.4088L27.6288 9.44C27.6422 8.76 27.5022 8.15333 27.2088 7.62C26.9155 7.08667 26.5088 6.67333 25.9888 6.38C25.4822 6.07333 24.8888 5.92 24.2088 5.92C23.5422 5.92 22.9488 6.07333 22.4288 6.38C21.9088 6.67333 21.5022 7.09333 21.2088 7.64C20.9155 8.17333 20.7688 8.78667 20.7688 9.48V9.8C20.7688 10.5067 20.9288 11.14 21.2488 11.7C21.5822 12.2467 22.0422 12.6733 22.6288 12.98C23.2155 13.2867 23.8888 13.44 24.6488 13.44C25.2755 13.44 25.8422 13.3333 26.3488 13.12C26.8688 12.9067 27.3222 12.5867 27.7088 12.16L28.7688 13.4C28.2888 13.96 27.6888 14.3867 26.9688 14.68C26.2622 14.9733 25.4688 15.12 24.5888 15.12ZM38.402 15V12.76L38.302 12.34V8.52C38.302 7.70667 38.062 7.08 37.582 6.64C37.1153 6.18667 36.4086 5.96 35.462 5.96C34.8353 5.96 34.222 6.06667 33.622 6.28C33.022 6.48 32.5153 6.75333 32.102 7.1L31.302 5.66C31.8486 5.22 32.502 4.88667 33.262 4.66C34.0353 4.42 34.842 4.3 35.682 4.3C37.1353 4.3 38.2553 4.65333 39.042 5.36C39.8286 6.06667 40.222 7.14667 40.222 8.6V15H38.402ZM34.922 15.12C34.1353 15.12 33.442 14.9867 32.842 14.72C32.2553 14.4533 31.802 14.0867 31.482 13.62C31.162 13.14 31.002 12.6 31.002 12C31.002 11.4267 31.1353 10.9067 31.402 10.44C31.682 9.97333 32.1286 9.6 32.742 9.32C33.3686 9.04 34.2086 8.9 35.262 8.9H38.622V10.28H35.342C34.382 10.28 33.7353 10.44 33.402 10.76C33.0686 11.08 32.902 11.4667 32.902 11.92C32.902 12.44 33.1086 12.86 33.522 13.18C33.9353 13.4867 34.5086 13.64 35.242 13.64C35.962 13.64 36.5886 13.48 37.122 13.16C37.6686 12.84 38.062 12.3733 38.302 11.76L38.682 13.08C38.4286 13.7067 37.982 14.2067 37.342 14.58C36.702 14.94 35.8953 15.12 34.922 15.12ZM46.8151 15.12C45.9351 15.12 45.0951 15 44.2951 14.76C43.5084 14.52 42.8884 14.2267 42.4351 13.88L43.2351 12.36C43.6884 12.6667 44.2484 12.9267 44.9151 13.14C45.5817 13.3533 46.2617 13.46 46.9551 13.46C47.8484 13.46 48.4884 13.3333 48.8751 13.08C49.2751 12.8267 49.4751 12.4733 49.4751 12.02C49.4751 11.6867 49.3551 11.4267 49.1151 11.24C48.8751 11.0533 48.5551 10.9133 48.1551 10.82C47.7684 10.7267 47.3351 10.6467 46.8551 10.58C46.3751 10.5 45.8951 10.4067 45.4151 10.3C44.9351 10.18 44.4951 10.02 44.0951 9.82C43.6951 9.60667 43.3751 9.32 43.1351 8.96C42.8951 8.58667 42.7751 8.09333 42.7751 7.48C42.7751 6.84 42.9551 6.28 43.3151 5.8C43.6751 5.32 44.1817 4.95333 44.8351 4.7C45.5017 4.43333 46.2884 4.3 47.1951 4.3C47.8884 4.3 48.5884 4.38667 49.2951 4.56C50.0151 4.72 50.6017 4.95333 51.0551 5.26L50.2351 6.78C49.7551 6.46 49.2551 6.24 48.7351 6.12C48.2151 6 47.6951 5.94 47.1751 5.94C46.3351 5.94 45.7084 6.08 45.2951 6.36C44.8817 6.62667 44.6751 6.97333 44.6751 7.4C44.6751 7.76 44.7951 8.04 45.0351 8.24C45.2884 8.42667 45.6084 8.57333 45.9951 8.68C46.3951 8.78667 46.8351 8.88 47.3151 8.96C47.7951 9.02667 48.2751 9.12 48.7551 9.24C49.2351 9.34667 49.6684 9.5 50.0551 9.7C50.4551 9.9 50.7751 10.18 51.0151 10.54C51.2684 10.9 51.3951 11.38 51.3951 11.98C51.3951 12.62 51.2084 13.1733 50.8351 13.64C50.4617 14.1067 49.9351 14.4733 49.2551 14.74C48.5751 14.9933 47.7617 15.12 46.8151 15.12ZM58.5146 15.12C57.3813 15.12 56.3813 14.8867 55.5146 14.42C54.6613 13.9533 53.9946 13.3133 53.5146 12.5C53.0479 11.6867 52.8146 10.7533 52.8146 9.7C52.8146 8.64667 53.0413 7.71333 53.4946 6.9C53.9613 6.08667 54.5946 5.45333 55.3946 5C56.2079 4.53333 57.1213 4.3 58.1346 4.3C59.1613 4.3 60.0679 4.52667 60.8546 4.98C61.6413 5.43333 62.2546 6.07333 62.6946 6.9C63.1479 7.71333 63.3746 8.66667 63.3746 9.76C63.3746 9.84 63.3679 9.93333 63.3546 10.04C63.3546 10.1467 63.3479 10.2467 63.3346 10.34H54.3146V8.96H62.3346L61.5546 9.44C61.5679 8.76 61.4279 8.15333 61.1346 7.62C60.8413 7.08667 60.4346 6.67333 59.9146 6.38C59.4079 6.07333 58.8146 5.92 58.1346 5.92C57.4679 5.92 56.8746 6.07333 56.3546 6.38C55.8346 6.67333 55.4279 7.09333 55.1346 7.64C54.8413 8.17333 54.6946 8.78667 54.6946 9.48V9.8C54.6946 10.5067 54.8546 11.14 55.1746 11.7C55.5079 12.2467 55.9679 12.6733 56.5546 12.98C57.1413 13.2867 57.8146 13.44 58.5746 13.44C59.2013 13.44 59.7679 13.3333 60.2746 13.12C60.7946 12.9067 61.2479 12.5867 61.6346 12.16L62.6946 13.4C62.2146 13.96 61.6146 14.3867 60.8946 14.68C60.1879 14.9733 59.3946 15.12 58.5146 15.12ZM69.5718 15L75.9118 0.999999H77.8918L84.2518 15H82.1518L76.4918 2.12H77.2918L71.6318 15H69.5718ZM72.2718 11.5L72.8118 9.9H80.6918L81.2718 11.5H72.2718ZM90.3426 15.12C89.3159 15.12 88.3959 14.8933 87.5826 14.44C86.7826 13.9867 86.1492 13.3533 85.6826 12.54C85.2159 11.7267 84.9826 10.78 84.9826 9.7C84.9826 8.62 85.2159 7.68 85.6826 6.88C86.1492 6.06667 86.7826 5.43333 87.5826 4.98C88.3959 4.52667 89.3159 4.3 90.3426 4.3C91.2359 4.3 92.0426 4.5 92.7626 4.9C93.4826 5.3 94.0559 5.9 94.4826 6.7C94.9226 7.5 95.1426 8.5 95.1426 9.7C95.1426 10.9 94.9292 11.9 94.5026 12.7C94.0892 13.5 93.5226 14.1067 92.8026 14.52C92.0826 14.92 91.2626 15.12 90.3426 15.12ZM90.5026 13.44C91.1692 13.44 91.7692 13.2867 92.3026 12.98C92.8492 12.6733 93.2759 12.24 93.5826 11.68C93.9026 11.1067 94.0626 10.4467 94.0626 9.7C94.0626 8.94 93.9026 8.28667 93.5826 7.74C93.2759 7.18 92.8492 6.74667 92.3026 6.44C91.7692 6.13333 91.1692 5.98 90.5026 5.98C89.8226 5.98 89.2159 6.13333 88.6826 6.44C88.1492 6.74667 87.7226 7.18 87.4026 7.74C87.0826 8.28667 86.9226 8.94 86.9226 9.7C86.9226 10.4467 87.0826 11.1067 87.4026 11.68C87.7226 12.24 88.1492 12.6733 88.6826 12.98C89.2159 13.2867 89.8226 13.44 90.5026 13.44ZM94.1226 15V12.14L94.2426 9.68L94.0426 7.22V0.159999H95.9626V15H94.1226ZM103.975 15.12C102.949 15.12 102.029 14.8933 101.215 14.44C100.415 13.9867 99.7821 13.3533 99.3154 12.54C98.8487 11.7267 98.6154 10.78 98.6154 9.7C98.6154 8.62 98.8487 7.68 99.3154 6.88C99.7821 6.06667 100.415 5.43333 101.215 4.98C102.029 4.52667 102.949 4.3 103.975 4.3C104.869 4.3 105.675 4.5 106.395 4.9C107.115 5.3 107.689 5.9 108.115 6.7C108.555 7.5 108.775 8.5 108.775 9.7C108.775 10.9 108.562 11.9 108.135 12.7C107.722 13.5 107.155 14.1067 106.435 14.52C105.715 14.92 104.895 15.12 103.975 15.12ZM104.135 13.44C104.802 13.44 105.402 13.2867 105.935 12.98C106.482 12.6733 106.909 12.24 107.215 11.68C107.535 11.1067 107.695 10.4467 107.695 9.7C107.695 8.94 107.535 8.28667 107.215 7.74C106.909 7.18 106.482 6.74667 105.935 6.44C105.402 6.13333 104.802 5.98 104.135 5.98C103.455 5.98 102.849 6.13333 102.315 6.44C101.782 6.74667 101.355 7.18 101.035 7.74C100.715 8.28667 100.555 8.94 100.555 9.7C100.555 10.4467 100.715 11.1067 101.035 11.68C101.355 12.24 101.782 12.6733 102.315 12.98C102.849 13.2867 103.455 13.44 104.135 13.44ZM107.755 15V12.14L107.875 9.68L107.675 7.22V0.159999H109.595V15H107.755ZM122.259 15V9.64L122.719 10.88L116.699 0.999999H118.839L123.899 9.34H122.739L127.819 0.999999H129.799L123.799 10.88L124.239 9.64V15H122.259ZM134.897 15.12C133.83 15.12 132.884 14.8867 132.057 14.42C131.23 13.9533 130.577 13.3133 130.097 12.5C129.617 11.6733 129.377 10.74 129.377 9.7C129.377 8.64667 129.617 7.71333 130.097 6.9C130.577 6.08667 131.23 5.45333 132.057 5C132.884 4.53333 133.83 4.3 134.897 4.3C135.95 4.3 136.89 4.53333 137.717 5C138.557 5.45333 139.21 6.08667 139.677 6.9C140.157 7.7 140.397 8.63333 140.397 9.7C140.397 10.7533 140.157 11.6867 139.677 12.5C139.21 13.3133 138.557 13.9533 137.717 14.42C136.89 14.8867 135.95 15.12 134.897 15.12ZM134.897 13.44C135.577 13.44 136.184 13.2867 136.717 12.98C137.264 12.6733 137.69 12.24 137.997 11.68C138.304 11.1067 138.457 10.4467 138.457 9.7C138.457 8.94 138.304 8.28667 137.997 7.74C137.69 7.18 137.264 6.74667 136.717 6.44C136.184 6.13333 135.577 5.98 134.897 5.98C134.217 5.98 133.61 6.13333 133.077 6.44C132.544 6.74667 132.117 7.18 131.797 7.74C131.477 8.28667 131.317 8.94 131.317 9.7C131.317 10.4467 131.477 11.1067 131.797 11.68C132.117 12.24 132.544 12.6733 133.077 12.98C133.61 13.2867 134.217 13.44 134.897 13.44ZM147.512 15.12C146.606 15.12 145.806 14.9533 145.112 14.62C144.432 14.2867 143.899 13.78 143.512 13.1C143.139 12.4067 142.952 11.54 142.952 10.5V4.4H144.872V10.28C144.872 11.32 145.119 12.1 145.612 12.62C146.119 13.14 146.826 13.4 147.732 13.4C148.399 13.4 148.979 13.2667 149.472 13C149.966 12.72 150.346 12.32 150.612 11.8C150.879 11.2667 151.012 10.6267 151.012 9.88V4.4H152.932V15H151.112V12.14L151.412 12.9C151.066 13.6067 150.546 14.1533 149.852 14.54C149.159 14.9267 148.379 15.12 147.512 15.12ZM156.588 15V4.4H158.428V7.28L158.248 6.56C158.541 5.82667 159.034 5.26667 159.728 4.88C160.421 4.49333 161.274 4.3 162.288 4.3V6.16C162.208 6.14667 162.128 6.14 162.048 6.14C161.981 6.14 161.914 6.14 161.848 6.14C160.821 6.14 160.008 6.44667 159.408 7.06C158.808 7.67333 158.508 8.56 158.508 9.72V15H156.588ZM24.5434 39V25H26.5434V39H24.5434ZM34.0948 39.12C33.0281 39.12 32.2014 38.8333 31.6148 38.26C31.0281 37.6867 30.7348 36.8667 30.7348 35.8V26.08H32.6548V35.72C32.6548 36.2933 32.7948 36.7333 33.0748 37.04C33.3681 37.3467 33.7814 37.5 34.3148 37.5C34.9148 37.5 35.4148 37.3333 35.8148 37L36.4148 38.38C36.1214 38.6333 35.7681 38.82 35.3548 38.94C34.9548 39.06 34.5348 39.12 34.0948 39.12ZM28.9348 29.98V28.4H35.6948V29.98H28.9348ZM43.1045 39.12C41.9711 39.12 40.9711 38.8867 40.1045 38.42C39.2511 37.9533 38.5845 37.3133 38.1045 36.5C37.6378 35.6867 37.4045 34.7533 37.4045 33.7C37.4045 32.6467 37.6311 31.7133 38.0845 30.9C38.5511 30.0867 39.1845 29.4533 39.9845 29C40.7978 28.5333 41.7111 28.3 42.7245 28.3C43.7511 28.3 44.6578 28.5267 45.4445 28.98C46.2311 29.4333 46.8445 30.0733 47.2845 30.9C47.7378 31.7133 47.9645 32.6667 47.9645 33.76C47.9645 33.84 47.9578 33.9333 47.9445 34.04C47.9445 34.1467 47.9378 34.2467 47.9245 34.34H38.9045V32.96H46.9245L46.1445 33.44C46.1578 32.76 46.0178 32.1533 45.7245 31.62C45.4311 31.0867 45.0245 30.6733 44.5045 30.38C43.9978 30.0733 43.4045 29.92 42.7245 29.92C42.0578 29.92 41.4645 30.0733 40.9445 30.38C40.4245 30.6733 40.0178 31.0933 39.7245 31.64C39.4311 32.1733 39.2845 32.7867 39.2845 33.48V33.8C39.2845 34.5067 39.4445 35.14 39.7645 35.7C40.0978 36.2467 40.5578 36.6733 41.1445 36.98C41.7311 37.2867 42.4045 37.44 43.1645 37.44C43.7911 37.44 44.3578 37.3333 44.8645 37.12C45.3845 36.9067 45.8378 36.5867 46.2245 36.16L47.2845 37.4C46.8045 37.96 46.2045 38.3867 45.4845 38.68C44.7778 38.9733 43.9845 39.12 43.1045 39.12ZM63.8905 28.3C64.7439 28.3 65.4972 28.4667 66.1505 28.8C66.8039 29.1333 67.3105 29.64 67.6705 30.32C68.0439 31 68.2305 31.86 68.2305 32.9V39H66.3105V33.12C66.3105 32.0933 66.0705 31.32 65.5905 30.8C65.1105 30.28 64.4372 30.02 63.5705 30.02C62.9305 30.02 62.3705 30.1533 61.8905 30.42C61.4105 30.6867 61.0372 31.08 60.7705 31.6C60.5172 32.12 60.3905 32.7667 60.3905 33.54V39H58.4705V33.12C58.4705 32.0933 58.2305 31.32 57.7505 30.8C57.2839 30.28 56.6105 30.02 55.7305 30.02C55.1039 30.02 54.5505 30.1533 54.0705 30.42C53.5905 30.6867 53.2172 31.08 52.9505 31.6C52.6839 32.12 52.5505 32.7667 52.5505 33.54V39H50.6305V28.4H52.4705V31.22L52.1705 30.5C52.5039 29.8067 53.0172 29.2667 53.7105 28.88C54.4039 28.4933 55.2105 28.3 56.1305 28.3C57.1439 28.3 58.0172 28.5533 58.7505 29.06C59.4839 29.5533 59.9639 30.3067 60.1905 31.32L59.4105 31C59.7305 30.1867 60.2905 29.5333 61.0905 29.04C61.8905 28.5467 62.8239 28.3 63.8905 28.3ZM74.8034 39.12C73.9234 39.12 73.0834 39 72.2834 38.76C71.4967 38.52 70.8767 38.2267 70.4234 37.88L71.2234 36.36C71.6767 36.6667 72.2367 36.9267 72.9034 37.14C73.57 37.3533 74.25 37.46 74.9434 37.46C75.8367 37.46 76.4767 37.3333 76.8634 37.08C77.2634 36.8267 77.4634 36.4733 77.4634 36.02C77.4634 35.6867 77.3434 35.4267 77.1034 35.24C76.8634 35.0533 76.5434 34.9133 76.1434 34.82C75.7567 34.7267 75.3234 34.6467 74.8434 34.58C74.3634 34.5 73.8834 34.4067 73.4034 34.3C72.9234 34.18 72.4834 34.02 72.0834 33.82C71.6834 33.6067 71.3634 33.32 71.1234 32.96C70.8834 32.5867 70.7634 32.0933 70.7634 31.48C70.7634 30.84 70.9434 30.28 71.3034 29.8C71.6634 29.32 72.17 28.9533 72.8234 28.7C73.49 28.4333 74.2767 28.3 75.1834 28.3C75.8767 28.3 76.5767 28.3867 77.2834 28.56C78.0034 28.72 78.59 28.9533 79.0434 29.26L78.2234 30.78C77.7434 30.46 77.2434 30.24 76.7234 30.12C76.2034 30 75.6834 29.94 75.1634 29.94C74.3234 29.94 73.6967 30.08 73.2834 30.36C72.87 30.6267 72.6634 30.9733 72.6634 31.4C72.6634 31.76 72.7834 32.04 73.0234 32.24C73.2767 32.4267 73.5967 32.5733 73.9834 32.68C74.3834 32.7867 74.8234 32.88 75.3034 32.96C75.7834 33.0267 76.2634 33.12 76.7434 33.24C77.2234 33.3467 77.6567 33.5 78.0434 33.7C78.4434 33.9 78.7634 34.18 79.0034 34.54C79.2567 34.9 79.3834 35.38 79.3834 35.98C79.3834 36.62 79.1967 37.1733 78.8234 37.64C78.45 38.1067 77.9234 38.4733 77.2434 38.74C76.5634 38.9933 75.75 39.12 74.8034 39.12ZM97.474 25H99.474V39H97.474V25ZM89.434 39H87.434V25H89.434V39ZM97.654 32.76H89.234V31.02H97.654V32.76ZM108.104 39.12C106.971 39.12 105.971 38.8867 105.104 38.42C104.251 37.9533 103.584 37.3133 103.104 36.5C102.638 35.6867 102.404 34.7533 102.404 33.7C102.404 32.6467 102.631 31.7133 103.084 30.9C103.551 30.0867 104.184 29.4533 104.984 29C105.798 28.5333 106.711 28.3 107.724 28.3C108.751 28.3 109.658 28.5267 110.444 28.98C111.231 29.4333 111.844 30.0733 112.284 30.9C112.738 31.7133 112.964 32.6667 112.964 33.76C112.964 33.84 112.958 33.9333 112.944 34.04C112.944 34.1467 112.938 34.2467 112.924 34.34H103.904V32.96H111.924L111.144 33.44C111.158 32.76 111.018 32.1533 110.724 31.62C110.431 31.0867 110.024 30.6733 109.504 30.38C108.998 30.0733 108.404 29.92 107.724 29.92C107.058 29.92 106.464 30.0733 105.944 30.38C105.424 30.6733 105.018 31.0933 104.724 31.64C104.431 32.1733 104.284 32.7867 104.284 33.48V33.8C104.284 34.5067 104.444 35.14 104.764 35.7C105.098 36.2467 105.558 36.6733 106.144 36.98C106.731 37.2867 107.404 37.44 108.164 37.44C108.791 37.44 109.358 37.3333 109.864 37.12C110.384 36.9067 110.838 36.5867 111.224 36.16L112.284 37.4C111.804 37.96 111.204 38.3867 110.484 38.68C109.778 38.9733 108.984 39.12 108.104 39.12ZM115.631 39V28.4H117.471V31.28L117.291 30.56C117.584 29.8267 118.077 29.2667 118.771 28.88C119.464 28.4933 120.317 28.3 121.331 28.3V30.16C121.251 30.1467 121.171 30.14 121.091 30.14C121.024 30.14 120.957 30.14 120.891 30.14C119.864 30.14 119.051 30.4467 118.451 31.06C117.851 31.6733 117.551 32.56 117.551 33.72V39H115.631ZM128.319 39.12C127.186 39.12 126.186 38.8867 125.319 38.42C124.466 37.9533 123.799 37.3133 123.319 36.5C122.853 35.6867 122.619 34.7533 122.619 33.7C122.619 32.6467 122.846 31.7133 123.299 30.9C123.766 30.0867 124.399 29.4533 125.199 29C126.013 28.5333 126.926 28.3 127.939 28.3C128.966 28.3 129.873 28.5267 130.659 28.98C131.446 29.4333 132.059 30.0733 132.499 30.9C132.953 31.7133 133.179 32.6667 133.179 33.76C133.179 33.84 133.173 33.9333 133.159 34.04C133.159 34.1467 133.153 34.2467 133.139 34.34H124.119V32.96H132.139L131.359 33.44C131.373 32.76 131.233 32.1533 130.939 31.62C130.646 31.0867 130.239 30.6733 129.719 30.38C129.213 30.0733 128.619 29.92 127.939 29.92C127.273 29.92 126.679 30.0733 126.159 30.38C125.639 30.6733 125.233 31.0933 124.939 31.64C124.646 32.1733 124.499 32.7867 124.499 33.48V33.8C124.499 34.5067 124.659 35.14 124.979 35.7C125.313 36.2467 125.773 36.6733 126.359 36.98C126.946 37.2867 127.619 37.44 128.379 37.44C129.006 37.44 129.573 37.3333 130.079 37.12C130.599 36.9067 131.053 36.5867 131.439 36.16L132.499 37.4C132.019 37.96 131.419 38.3867 130.699 38.68C129.993 38.9733 129.199 39.12 128.319 39.12ZM136.305 39.12C135.932 39.12 135.612 38.9933 135.345 38.74C135.079 38.4733 134.945 38.14 134.945 37.74C134.945 37.34 135.079 37.0133 135.345 36.76C135.612 36.5067 135.932 36.38 136.305 36.38C136.665 36.38 136.972 36.5067 137.225 36.76C137.492 37.0133 137.625 37.34 137.625 37.74C137.625 38.14 137.492 38.4733 137.225 38.74C136.972 38.9933 136.665 39.12 136.305 39.12Z" fill="black" fill-opacity="0.25"/>
</svg>
