<svg width="200" height="200" viewBox="0 0 200 200" fill="none" xmlns="http://www.w3.org/2000/svg">
<rect width="200" height="200" rx="100" fill="#E8D6D6"/>
<g filter="url(#filter0_d_525_38)">
<path d="M70.6526 73.8234C70.586 73.8226 70.5196 73.8253 70.4532 73.8276C70.3646 73.8309 70.2757 73.837 70.1874 73.8455C69.1289 73.9475 68.1064 74.4334 67.0252 75.4223C65.61 76.7161 65.2021 77.9254 65.4084 79.351C65.6147 80.7763 66.5924 82.5027 68.4026 84.2985C68.813 84.7056 69.2709 85.1117 69.7623 85.521C69.9423 85.6706 70.1259 85.8229 70.3161 85.9726C70.4772 86.0998 70.6396 86.2253 70.8034 86.3491C70.8363 86.3739 70.8678 86.3998 70.9009 86.4245C73.1893 88.1307 76.1442 89.8174 79.6441 91.368C102.283 114.232 120.58 133.543 132.738 141.277C125.494 129.141 106.172 110.858 83.13 88.0503C81.68 84.6767 80.1372 81.855 78.581 79.6478C83.6071 78.2035 90.2768 79.3227 96.4046 85.4506C102.109 91.1544 103.866 98.317 102.269 103.642C102.962 104.338 103.67 105.047 104.351 105.732C107.054 99.1982 104.999 90.2977 98.2782 83.5768C93.219 78.5177 87.5798 76.444 82.5408 76.4587C82.3782 76.4594 82.2148 76.463 82.0535 76.4678C78.9573 76.5599 76.1065 77.4455 73.7839 78.9038C73.3778 79.1589 72.9846 79.4339 72.6058 79.7279C72.7943 80.1664 72.9967 80.5619 73.2303 80.8927C73.5024 81.2782 73.7978 81.5923 74.2091 81.8406C74.5212 81.5973 74.8466 81.3623 75.1925 81.1453C75.344 81.0489 75.4976 80.9558 75.6531 80.8661C76.8148 82.2959 77.8451 84.3562 79.2632 87.5632C75.8747 86.0653 73.7606 85.0062 72.3133 83.7363C72.3167 83.732 72.319 83.7273 72.3224 83.7231C72.261 83.6763 72.1995 83.6302 72.141 83.5813C72.1392 83.5802 72.1379 83.5785 72.1363 83.5771C70.5467 82.1065 69.7931 80.3265 68.9741 77.2697C69.8229 77.4972 70.5695 77.7219 71.2419 77.9563C72.419 77.0643 73.6939 76.3094 75.042 75.7062C73.6954 74.6094 72.4124 74.0153 71.2595 73.8679C71.055 73.8416 70.8527 73.8252 70.6526 73.8234ZM132.517 80.3342C121.463 80.3342 114.716 84.4285 111.805 90.1717C108.895 95.915 109.822 102.983 113.178 108.797C114.792 111.592 115.702 114.564 115.898 117.474C116.773 118.378 117.646 119.285 118.516 120.194C118.843 115.948 117.797 111.498 115.473 107.473C112.478 102.285 111.766 96.1179 114.171 91.3723C116.576 86.6267 122.1 82.9831 132.517 82.9831V80.3345L132.517 80.3342ZM67.9729 87.5011C67.5627 90.8922 68.8488 94.6178 72.1587 97.9277L74.0322 96.0584C71.7686 93.7949 70.7456 91.5465 70.5685 89.4544C69.6266 88.8152 68.7608 88.1643 67.9728 87.501L67.9729 87.5011ZM80.1844 110.471C76.7166 110.468 73.8005 111.169 71.4897 112.407C67.9686 114.294 65.9105 117.491 65.7139 120.978C65.3198 127.953 72.0042 135.527 85.6146 137.743C100.019 140.088 109.753 136.441 114.729 130.08C114.872 129.897 115.01 129.713 115.145 129.527C114.5 128.927 113.849 128.319 113.192 127.702C113.017 127.955 112.834 128.205 112.642 128.45C108.395 133.881 99.8357 137.375 86.04 135.13C73.2277 133.044 68.0681 126.267 68.3581 121.128C68.5031 118.559 69.9147 116.257 72.7432 114.741C75.5716 113.226 79.868 112.564 85.5706 113.682C90.4006 114.631 94.4913 114.174 97.6802 112.699C97.0112 112.04 96.3351 111.377 95.6562 110.706C93.1694 111.62 90.0023 111.852 86.0798 111.082C83.9686 110.668 82.0009 110.473 80.1844 110.471V110.471Z" fill="#BA7E80"/>
</g>
<defs>
<filter id="filter0_d_525_38" x="58.6001" y="71.21" width="80.5701" height="80.5701" filterUnits="userSpaceOnUse" color-interpolation-filters="sRGB">
<feFlood flood-opacity="0" result="BackgroundImageFix"/>
<feColorMatrix in="SourceAlpha" type="matrix" values="0 0 0 0 0 0 0 0 0 0 0 0 0 0 0 0 0 0 127 0" result="hardAlpha"/>
<feOffset dy="4"/>
<feGaussianBlur stdDeviation="2"/>
<feComposite in2="hardAlpha" operator="out"/>
<feColorMatrix type="matrix" values="0 0 0 0 0 0 0 0 0 0 0 0 0 0 0 0 0 0 0.25 0"/>
<feBlend mode="normal" in2="BackgroundImageFix" result="effect1_dropShadow_525_38"/>
<feBlend mode="normal" in="SourceGraphic" in2="effect1_dropShadow_525_38" result="shape"/>
</filter>
</defs>
</svg>
