<svg width="41" height="42" viewBox="0 0 41 42" fill="none" xmlns="http://www.w3.org/2000/svg">
<g filter="url(#filter0_d_2_880)">
<path d="M6.88367 1.26031C6.85154 1.25997 6.81955 1.26127 6.78749 1.26236C6.74477 1.26393 6.70191 1.26687 6.65932 1.27097C6.14881 1.32019 5.65567 1.55453 5.13422 2.03147C4.45165 2.65546 4.25491 3.2387 4.35445 3.92626C4.45391 4.61368 4.92545 5.4463 5.79854 6.31241C5.99644 6.50874 6.21731 6.70459 6.45431 6.90201C6.54113 6.97413 6.62965 7.04761 6.72139 7.1198C6.79907 7.18117 6.87742 7.24169 6.95641 7.30136C6.97227 7.31333 6.98744 7.32584 7.00344 7.33773C8.1071 8.16064 9.53226 8.97412 11.2202 9.72197C22.1388 20.749 30.9634 30.0625 36.8272 33.7929C33.3334 27.9397 24.0145 19.1217 12.9014 8.12188C12.2021 6.49479 11.458 5.13389 10.7075 4.0694C13.1315 3.37282 16.3483 3.91258 19.3037 6.86803C22.0547 9.61895 22.9023 13.0734 22.1321 15.6415C22.4663 15.9774 22.8076 16.3191 23.1361 16.6498C24.4397 13.4984 23.4487 9.20579 20.2073 5.96432C17.7673 3.52437 15.0476 2.52421 12.6172 2.53132C12.5388 2.53166 12.46 2.53337 12.3822 2.53569C10.889 2.58012 9.51407 3.00723 8.39387 3.71058C8.19801 3.83359 8.00838 3.96623 7.82567 4.10802C7.91658 4.31953 8.0142 4.51025 8.12686 4.6698C8.25811 4.85574 8.40057 5.00722 8.59895 5.12699C8.74947 5.00962 8.90643 4.89628 9.07323 4.79162C9.14631 4.74515 9.22038 4.70025 9.29539 4.65695C9.85567 5.34656 10.3526 6.34023 11.0365 7.88693C9.40224 7.16451 8.38266 6.65373 7.68464 6.04123C7.68628 6.03918 7.68738 6.03692 7.68902 6.03487C7.65942 6.01231 7.62975 5.99009 7.60152 5.96651C7.60063 5.96596 7.60001 5.96514 7.59926 5.96446C6.83261 5.25523 6.46914 4.39671 6.07416 2.92247C6.4835 3.03218 6.84362 3.14053 7.16791 3.2536C7.7356 2.82341 8.35048 2.45933 9.00063 2.1684C8.35121 1.63943 7.73242 1.35287 7.17639 1.28177C7.07775 1.26913 6.9802 1.2612 6.88367 1.26031ZM36.7203 4.40047C31.3893 4.40047 28.1352 6.37509 26.7313 9.14502C25.3275 11.9149 25.7747 15.324 27.3936 18.1279C28.1719 19.476 28.6109 20.9093 28.7052 22.3129C29.1274 22.7488 29.5483 23.186 29.9678 23.6245C30.1257 21.5768 29.6211 19.4306 28.5001 17.4892C27.0557 14.9871 26.7122 12.0128 27.8722 9.72402C29.0322 7.43528 31.6962 5.67797 36.7204 5.67797V4.4006L36.7203 4.40047ZM5.59127 7.85699C5.39344 9.49249 6.01373 11.2893 7.61006 12.8856L8.51363 11.9841C7.42194 10.8924 6.92852 9.80803 6.84314 8.79905C6.38882 8.49075 5.97128 8.17684 5.5912 7.85692L5.59127 7.85699ZM11.4808 18.9354C9.80829 18.9335 8.40187 19.2718 7.2874 19.869C5.58922 20.7788 4.59657 22.3207 4.50176 24.0027C4.31172 27.3664 7.53555 31.0197 14.0998 32.0882C21.0471 33.2191 25.7416 31.4604 28.1412 28.3926C28.2102 28.3044 28.2771 28.2155 28.3422 28.1255C28.031 27.8362 27.7168 27.5431 27.4 27.2454C27.3157 27.3678 27.2277 27.4881 27.1351 27.6064C25.0863 30.2255 20.9585 31.9109 14.3049 30.8279C8.12563 29.8219 5.63721 26.5536 5.77707 24.0751C5.847 22.836 6.5278 21.7256 7.89197 20.9947C9.25609 20.2638 11.3282 19.9444 14.0785 20.4841C16.408 20.9414 18.3809 20.7213 19.9189 20.0099C19.5963 19.692 19.2702 19.3721 18.9427 19.0485C17.7434 19.4896 16.2159 19.6014 14.3241 19.2301C13.3059 19.0303 12.3569 18.9363 11.4808 18.9353V18.9354Z" fill="#545454"/>
</g>
<defs>
<filter id="filter0_d_2_880" x="-1" y="0" width="43" height="43" filterUnits="userSpaceOnUse" color-interpolation-filters="sRGB">
<feFlood flood-opacity="0" result="BackgroundImageFix"/>
<feColorMatrix in="SourceAlpha" type="matrix" values="0 0 0 0 0 0 0 0 0 0 0 0 0 0 0 0 0 0 127 0" result="hardAlpha"/>
<feOffset dy="4"/>
<feGaussianBlur stdDeviation="2"/>
<feComposite in2="hardAlpha" operator="out"/>
<feColorMatrix type="matrix" values="0 0 0 0 0 0 0 0 0 0 0 0 0 0 0 0 0 0 0.25 0"/>
<feBlend mode="normal" in2="BackgroundImageFix" result="effect1_dropShadow_2_880"/>
<feBlend mode="normal" in="SourceGraphic" in2="effect1_dropShadow_2_880" result="shape"/>
</filter>
</defs>
</svg>
