<svg width="46" height="46" viewBox="0 0 46 46" fill="none" xmlns="http://www.w3.org/2000/svg">
<path d="M0 13.8C0 6.17847 6.17847 0 13.8 0H32.2C39.8215 0 46 6.17847 46 13.8V32.2C46 39.8215 39.8215 46 32.2 46H13.8C6.17847 46 0 39.8215 0 32.2V13.8Z" fill="#BA7E80"/>
<path d="M20.7 16.1C20.7 16.9418 20.4735 17.7319 20.079 18.4115L23 21.3728L30.7372 13.6356C31.1685 13.2044 31.7534 12.9622 32.3633 12.9622C32.9732 12.9622 33.5581 13.2044 33.9894 13.6356L20.0629 27.5621C20.6316 28.5265 20.829 29.6653 20.6181 30.7649C20.4072 31.8644 19.8025 32.8494 18.9174 33.535C18.0323 34.2207 16.9275 34.5599 15.8101 34.4893C14.6927 34.4186 13.6394 33.9428 12.8477 33.1511C12.056 32.3594 11.5803 31.3062 11.5096 30.1888C11.4389 29.0714 11.7782 27.9666 12.4639 27.0815C13.1495 26.1963 14.1344 25.5917 15.234 25.3808C16.3336 25.1699 17.4724 25.3673 18.4368 25.936L21.3739 23L18.4368 20.0629C17.563 20.5782 16.5434 20.7903 15.5366 20.666C14.5299 20.5418 13.5924 20.0883 12.8701 19.376C12.1478 18.6637 11.6812 17.7327 11.5429 16.7277C11.4047 15.7228 11.6024 14.7003 12.1055 13.8194C12.6086 12.9385 13.3887 12.2487 14.3245 11.8571C15.2603 11.4656 16.2993 11.3944 17.2798 11.6545C18.2603 11.9147 19.1273 12.4917 19.7458 13.2957C20.3644 14.0997 20.6999 15.0856 20.7 16.1ZM18.4 16.1C18.4 15.49 18.1577 14.905 17.7264 14.4737C17.295 14.0423 16.71 13.8 16.1 13.8C15.49 13.8 14.905 14.0423 14.4737 14.4737C14.0423 14.905 13.8 15.49 13.8 16.1C13.8 16.71 14.0423 17.295 14.4737 17.7264C14.905 18.1577 15.49 18.4 16.1 18.4C16.71 18.4 17.295 18.1577 17.7264 17.7264C18.1577 17.295 18.4 16.71 18.4 16.1ZM33.9894 32.3633C33.5581 32.7945 32.9732 33.0367 32.3633 33.0367C31.7534 33.0367 31.1685 32.7945 30.7372 32.3633L24.6227 26.2499L26.2499 24.6227L33.9894 32.3633V32.3633ZM27.6 21.85H29.9V24.15H27.6V21.85ZM32.2 21.85H34.5V24.15H32.2V21.85ZM16.1 21.85H18.4V24.15H16.1V21.85ZM11.5 21.85H13.8V24.15H11.5V21.85ZM16.1 32.2C16.71 32.2 17.295 31.9577 17.7264 31.5264C18.1577 31.095 18.4 30.51 18.4 29.9C18.4 29.29 18.1577 28.705 17.7264 28.2737C17.295 27.8423 16.71 27.6 16.1 27.6C15.49 27.6 14.905 27.8423 14.4737 28.2737C14.0423 28.705 13.8 29.29 13.8 29.9C13.8 30.51 14.0423 31.095 14.4737 31.5264C14.905 31.9577 15.49 32.2 16.1 32.2V32.2Z" fill="white"/>
</svg>
