<svg width="20" height="20" viewBox="0 0 20 20" fill="none" xmlns="http://www.w3.org/2000/svg">
<path d="M17.9419 12.0581L16.25 10.3663V8.125C16.2481 6.57615 15.6719 5.08303 14.6329 3.93436C13.5939 2.7857 12.1659 2.06308 10.625 1.90625V0.625H9.375V1.90625C7.83411 2.06308 6.4061 2.7857 5.36711 3.93436C4.32811 5.08303 3.75194 6.57615 3.75 8.125V10.3663L2.05812 12.0581C1.94091 12.1753 1.87504 12.3343 1.875 12.5V14.375C1.875 14.5408 1.94085 14.6997 2.05806 14.8169C2.17527 14.9342 2.33424 15 2.5 15H6.875V15.4856C6.8614 16.2785 7.14088 17.0486 7.65986 17.6482C8.17885 18.2478 8.90085 18.6348 9.6875 18.735C10.122 18.7781 10.5607 18.7298 10.9754 18.5931C11.3901 18.4565 11.7716 18.2346 12.0953 17.9416C12.4191 17.6487 12.678 17.2913 12.8553 16.8923C13.0326 16.4933 13.1245 16.0616 13.125 15.625V15H17.5C17.6658 15 17.8247 14.9342 17.9419 14.8169C18.0592 14.6997 18.125 14.5408 18.125 14.375V12.5C18.125 12.3343 18.0591 12.1753 17.9419 12.0581ZM11.875 15.625C11.875 16.1223 11.6775 16.5992 11.3258 16.9508C10.9742 17.3025 10.4973 17.5 10 17.5C9.50272 17.5 9.02581 17.3025 8.67417 16.9508C8.32254 16.5992 8.125 16.1223 8.125 15.625V15H11.875V15.625ZM16.875 13.75H3.125V12.7588L4.81687 11.0669C4.93409 10.9497 4.99996 10.7907 5 10.625V8.125C5 6.79892 5.52678 5.52715 6.46447 4.58947C7.40215 3.65178 8.67392 3.125 10 3.125C11.3261 3.125 12.5979 3.65178 13.5355 4.58947C14.4732 5.52715 15 6.79892 15 8.125V10.625C15 10.7907 15.0659 10.9497 15.1831 11.0669L16.875 12.7588V13.75Z" fill="#545454"/>
</svg>
