<svg width="40" height="40" viewBox="0 0 40 40" fill="none" xmlns="http://www.w3.org/2000/svg">
<path d="M4.81797 9.35938L3.82656 14.6953C3.39922 17.0078 3.74687 19.3906 4.81797 21.4766H8.80469V9.35938H4.81797ZM10.1797 9.35938V18.3906H10.4063C10.8906 18.3906 11.2813 17.9922 11.2813 17.5078V9.35938H10.1797ZM12.6641 9.35938V17.5078C12.6641 18.75 11.6563 19.7578 10.4063 19.7578H10.1797V26.1406H11.3438V21.4766H12.875C12.875 21.4766 13.4688 20.2812 13.9375 19.3125C14.3047 18.5937 15.0391 18.1328 15.8516 18.1328H22.1172C23.2891 18.1328 24.2422 19.0781 24.2422 20.25V27.3984H2.02734L2.85313 32.75H35.5547L36.375 27.8203L34.7266 9.35938H12.6641ZM36.8906 11.1875C36.5078 11.2187 36.2266 11.5547 36.2656 11.9297L36.6016 15.6328C36.6328 16.0078 36.9688 16.2891 37.3438 16.2578C37.7266 16.2266 38 15.8828 37.9688 15.5078L37.6406 11.8125C37.6094 11.4609 37.3125 11.1875 36.9609 11.1875H36.8906ZM30.1094 11.1953C31.8047 11.1953 33.1719 12.5625 33.1719 14.2578C33.1719 15.9531 31.8047 17.3203 30.1094 17.3203C28.4141 17.3203 27.0469 15.9531 27.0469 14.2578C27.0469 12.5625 28.4141 11.1953 30.1094 11.1953ZM30.1094 12.5625C29.1797 12.5625 28.4141 13.3281 28.4141 14.2578C28.4141 15.1953 29.1797 15.9531 30.1094 15.9531C31.0391 15.9531 31.8047 15.1953 31.8047 14.2578C31.8047 13.3281 31.0391 12.5625 30.1094 12.5625ZM30.1094 19.5859C32.1875 19.5859 33.875 21.2812 33.875 23.3516C33.875 25.4297 32.1875 27.1172 30.1094 27.1172C28.0313 27.1172 26.3438 25.4297 26.3438 23.3516C26.3438 21.2812 28.0313 19.5859 30.1094 19.5859ZM30.1094 20.9609C28.7891 20.9609 27.7188 22.0312 27.7188 23.3516C27.7188 24.6719 28.7891 25.7344 30.1094 25.7344C31.4297 25.7344 32.4922 24.6719 32.4922 23.3516C32.4922 22.0312 31.4297 20.9609 30.1094 20.9609ZM7.24297 22.4844V23.8594H8.8125V22.4844H7.24297ZM2.85313 34.2891V36.3594H35.5391V34.2891H2.85313Z" fill="#BA7E80"/>
</svg>
