<svg width="200" height="200" viewBox="0 0 200 200" fill="none" xmlns="http://www.w3.org/2000/svg">
<rect width="200" height="200" rx="100" fill="#E8D6D6"/>
<path d="M62.0449 73.3984L59.5664 86.7383C58.498 92.5195 59.3672 98.4766 62.0449 103.691H72.0117V73.3984H62.0449ZM75.4492 73.3984V95.9766H76.0156C77.2266 95.9766 78.2031 94.9805 78.2031 93.7695V73.3984H75.4492ZM81.6602 73.3984V93.7695C81.6602 96.875 79.1406 99.3945 76.0156 99.3945H75.4492V115.352H78.3594V103.691H82.1875C82.1875 103.691 83.6719 100.703 84.8438 98.2812C85.7617 96.4844 87.5977 95.332 89.6289 95.332H105.293C108.223 95.332 110.605 97.6953 110.605 100.625V118.496H55.0684L57.1328 131.875H138.887L140.938 119.551L136.816 73.3984H81.6602ZM142.227 77.9687C141.27 78.0469 140.566 78.8867 140.664 79.8242L141.504 89.082C141.582 90.0195 142.422 90.7227 143.359 90.6445C144.316 90.5664 145 89.707 144.922 88.7695L144.102 79.5312C144.023 78.6523 143.281 77.9687 142.402 77.9687H142.227ZM125.273 77.9883C129.512 77.9883 132.93 81.4062 132.93 85.6445C132.93 89.8828 129.512 93.3008 125.273 93.3008C121.035 93.3008 117.617 89.8828 117.617 85.6445C117.617 81.4062 121.035 77.9883 125.273 77.9883ZM125.273 81.4062C122.949 81.4062 121.035 83.3203 121.035 85.6445C121.035 87.9883 122.949 89.8828 125.273 89.8828C127.598 89.8828 129.512 87.9883 129.512 85.6445C129.512 83.3203 127.598 81.4062 125.273 81.4062ZM125.273 98.9648C130.469 98.9648 134.688 103.203 134.688 108.379C134.688 113.574 130.469 117.793 125.273 117.793C120.078 117.793 115.859 113.574 115.859 108.379C115.859 103.203 120.078 98.9648 125.273 98.9648ZM125.273 102.402C121.973 102.402 119.297 105.078 119.297 108.379C119.297 111.68 121.973 114.336 125.273 114.336C128.574 114.336 131.23 111.68 131.23 108.379C131.23 105.078 128.574 102.402 125.273 102.402ZM68.1074 106.211V109.648H72.0313V106.211H68.1074ZM57.1328 135.723V140.898H138.848V135.723H57.1328Z" fill="#BA7E80"/>
</svg>
