<svg width="35" height="35" viewBox="0 0 35 35" fill="none" xmlns="http://www.w3.org/2000/svg">
<path d="M3.8838 1.26031C3.85167 1.25997 3.81967 1.26127 3.78761 1.26236C3.74489 1.26393 3.70203 1.26687 3.65944 1.27097C3.14893 1.32019 2.65579 1.55453 2.13434 2.03147C1.45177 2.65546 1.25504 3.2387 1.35457 3.92626C1.45403 4.61368 1.92557 5.4463 2.79866 6.31241C2.99656 6.50874 3.21743 6.70459 3.45443 6.90201C3.54125 6.97413 3.62977 7.04761 3.72151 7.1198C3.79919 7.18117 3.87754 7.24169 3.95653 7.30136C3.97239 7.31333 3.98757 7.32584 4.00356 7.33773C5.10722 8.16064 6.53238 8.97412 8.22031 9.72197C19.1389 20.749 27.9635 30.0625 33.8273 33.7929C30.3335 27.9397 21.0146 19.1217 9.90154 8.12188C9.20222 6.49479 8.45813 5.13389 7.70761 4.0694C10.1316 3.37282 13.3484 3.91258 16.3038 6.86803C19.0548 9.61895 19.9024 13.0734 19.1322 15.6415C19.4665 15.9774 19.8078 16.3191 20.1362 16.6498C21.4398 13.4984 20.4488 9.20579 17.2074 5.96432C14.7674 3.52437 12.0477 2.52421 9.61737 2.53132C9.53896 2.53166 9.46014 2.53337 9.38235 2.53569C7.88911 2.58012 6.5142 3.00723 5.39399 3.71058C5.19813 3.83359 5.0085 3.96623 4.82579 4.10802C4.91671 4.31953 5.01432 4.51025 5.12698 4.6698C5.25823 4.85574 5.40069 5.00722 5.59907 5.12699C5.7496 5.00962 5.90655 4.89628 6.07335 4.79162C6.14643 4.74515 6.22051 4.70025 6.29552 4.65695C6.85579 5.34656 7.35269 6.34023 8.03663 7.88693C6.40236 7.16451 5.38278 6.65373 4.68476 6.04123C4.6864 6.03918 4.6875 6.03692 4.68914 6.03487C4.65954 6.01231 4.62987 5.99009 4.60164 5.96651C4.60075 5.96596 4.60013 5.96514 4.59938 5.96446C3.83273 5.25523 3.46926 4.39671 3.07428 2.92247C3.48362 3.03218 3.84374 3.14053 4.16803 3.2536C4.73573 2.82341 5.3506 2.45933 6.00075 2.1684C5.35134 1.63943 4.73255 1.35287 4.17651 1.28177C4.07787 1.26913 3.98032 1.2612 3.8838 1.26031ZM33.7204 4.40047C28.3894 4.40047 25.1354 6.37509 23.7315 9.14502C22.3276 11.9149 22.7748 15.324 24.3937 18.1279C25.172 19.476 25.611 20.9093 25.7053 22.3129C26.1276 22.7488 26.5484 23.186 26.9679 23.6245C27.1258 21.5768 26.6212 19.4306 25.5003 17.4892C24.0558 14.9871 23.7123 12.0128 24.8723 9.72402C26.0324 7.43528 28.6963 5.67797 33.7205 5.67797V4.4006L33.7204 4.40047ZM2.59139 7.85699C2.39356 9.49249 3.01385 11.2893 4.61018 12.8856L5.51376 11.9841C4.42206 10.8924 3.92864 9.80803 3.84326 8.79905C3.38894 8.49075 2.9714 8.17684 2.59133 7.85692L2.59139 7.85699ZM8.4809 18.9354C6.80841 18.9335 5.40199 19.2718 4.28753 19.869C2.58934 20.7788 1.5967 22.3207 1.50188 24.0027C1.31184 27.3664 4.53567 31.0197 11.0999 32.0882C18.0472 33.2191 22.7417 31.4604 25.1413 28.3926C25.2104 28.3044 25.2772 28.2155 25.3423 28.1255C25.0311 27.8362 24.7169 27.5431 24.4001 27.2454C24.3158 27.3678 24.2278 27.4881 24.1352 27.6064C22.0865 30.2255 17.9586 31.9109 11.305 30.8279C5.12575 29.8219 2.63733 26.5536 2.77719 24.0751C2.84713 22.836 3.52792 21.7256 4.8921 20.9947C6.25621 20.2638 8.32832 19.9444 11.0786 20.4841C13.4081 20.9414 15.381 20.7213 16.919 20.0099C16.5964 19.692 16.2703 19.3721 15.9429 19.0485C14.7435 19.4896 13.216 19.6014 11.3242 19.2301C10.306 19.0303 9.35699 18.9363 8.4809 18.9353V18.9354Z" fill="#BA7E80"/>
</svg>
